<svg xmlns="http://www.w3.org/2000/svg" xmlns:xlink="http://www.w3.org/1999/xlink" width="500" zoomAndPan="magnify" viewBox="0 0 375 374.999991" height="500" preserveAspectRatio="xMidYMid meet" version="1.0"><defs><g/><clipPath id="3c185726f1"><path d="M 42.34375 147.570312 L 332.566406 147.570312 L 332.566406 227.070312 L 42.34375 227.070312 Z M 42.34375 147.570312 " clip-rule="nonzero"/></clipPath><clipPath id="b58869e2b6"><path d="M 50.164062 155.074219 L 187.316406 155.074219 L 187.316406 219.925781 L 50.164062 219.925781 Z M 50.164062 155.074219 " clip-rule="nonzero"/></clipPath></defs><g clip-path="url(#3c185726f1)"><path stroke-linecap="butt" transform="matrix(0.750727, 0, 0, 0.746698, 42.345266, 147.570151)" fill="none" stroke-linejoin="miter" d="M -0.002019 0.000216139 L 386.586588 0.000216139 L 386.586588 106.468972 L -0.002019 106.468972 L -0.002019 0.000216139 " stroke="#000000" stroke-width="6" stroke-opacity="1" stroke-miterlimit="4"/></g><g clip-path="url(#b58869e2b6)"><path fill="#000000" d="M 50.164062 155.074219 L 187.316406 155.074219 L 187.316406 219.925781 L 50.164062 219.925781 Z M 50.164062 155.074219 " fill-opacity="1" fill-rule="nonzero"/></g><g fill="#ffffff" fill-opacity="1"><g transform="translate(65.769956, 197.603695)"><g><path d="M 2.769531 -3.796875 L 15.03125 -8.964844 L 15.03125 -11.453125 L 2.769531 -16.589844 L 2.769531 -13.882812 L 8.152344 -11.703125 L 11.671875 -10.207031 L 8.152344 -8.714844 L 2.769531 -6.503906 Z M 2.769531 -3.796875 "/></g></g></g><g fill="#ffffff" fill-opacity="1"><g transform="translate(85.962976, 197.603695)"><g><path d="M 7.65625 0 L 10.207031 0 L 16.746094 -17.648438 L 20.355469 -7.9375 L 23.3125 0 L 25.863281 0 L 32.960938 -21.785156 L 30.097656 -21.785156 L 24.492188 -4.355469 L 18.050781 -21.785156 L 15.46875 -21.785156 L 9.027344 -4.386719 L 6.472656 -12.386719 L 3.453125 -21.785156 L 0.589844 -21.785156 Z M 7.65625 0 "/></g></g></g><g fill="#ffffff" fill-opacity="1"><g transform="translate(121.867836, 197.603695)"><g><path d="M 3.175781 0 L 16.746094 0 L 16.746094 -2.550781 L 5.914062 -2.550781 L 5.914062 -9.835938 L 15.625 -9.835938 L 15.625 -12.355469 L 5.914062 -12.355469 L 5.914062 -19.234375 L 16.402344 -19.234375 L 16.402344 -21.785156 L 3.175781 -21.785156 Z M 3.175781 0 "/></g></g></g><g fill="#ffffff" fill-opacity="1"><g transform="translate(142.994233, 197.603695)"><g><path d="M 3.175781 0 L 12.011719 0 C 16.402344 0 19.140625 -2.335938 19.140625 -6.101562 C 19.140625 -8.558594 17.925781 -10.394531 15.6875 -11.296875 C 17.460938 -12.199219 18.519531 -13.882812 18.519531 -15.996094 C 18.519531 -19.515625 15.78125 -21.785156 11.609375 -21.785156 L 3.175781 -21.785156 Z M 5.914062 -2.550781 L 5.914062 -9.867188 L 11.921875 -9.867188 C 14.753906 -9.867188 16.339844 -8.527344 16.339844 -6.222656 C 16.339844 -3.890625 14.753906 -2.550781 11.953125 -2.550781 Z M 5.914062 -12.355469 L 5.914062 -19.234375 L 11.546875 -19.234375 C 14.191406 -19.234375 15.71875 -17.988281 15.71875 -15.78125 C 15.71875 -13.601562 14.222656 -12.355469 11.546875 -12.355469 Z M 5.914062 -12.355469 "/></g></g></g><g fill="#000000" fill-opacity="1"><g transform="translate(199.001399, 197.771295)"><g><path d="M 2.304688 0 L 8.589844 0 L 8.589844 -5.382812 L 11.484375 -5.382812 C 17.023438 -5.382812 20.539062 -8.589844 20.539062 -13.601562 C 20.539062 -18.609375 17.023438 -21.785156 11.484375 -21.785156 L 2.304688 -21.785156 Z M 8.527344 -10.644531 L 8.527344 -16.496094 L 10.894531 -16.496094 C 12.976562 -16.496094 14.191406 -15.375 14.191406 -13.570312 C 14.191406 -11.734375 12.976562 -10.644531 10.894531 -10.644531 Z M 8.527344 -10.644531 "/></g></g></g><g fill="#000000" fill-opacity="1"><g transform="translate(220.256533, 197.771295)"><g><path d="M 2.304688 0 L 8.589844 0 L 8.589844 -6.191406 L 10.953125 -6.191406 L 14.066406 0 L 21.195312 0 L 17.179688 -7.34375 C 19.480469 -8.621094 20.789062 -10.925781 20.789062 -13.972656 C 20.789062 -18.796875 17.523438 -21.785156 12.230469 -21.785156 L 2.304688 -21.785156 Z M 8.464844 -11.203125 L 8.464844 -16.648438 L 11.390625 -16.648438 C 13.382812 -16.648438 14.472656 -15.683594 14.472656 -13.941406 C 14.472656 -12.199219 13.382812 -11.203125 11.390625 -11.203125 Z M 8.464844 -11.203125 "/></g></g></g><g fill="#000000" fill-opacity="1"><g transform="translate(242.663117, 197.771295)"><g><path d="M 2.304688 0 L 8.589844 0 L 8.589844 -21.785156 L 2.304688 -21.785156 Z M 2.304688 0 "/></g></g></g><g fill="#000000" fill-opacity="1"><g transform="translate(253.555212, 197.771295)"><g><path d="M 2.304688 0 L 8.527344 0 L 8.527344 -11.046875 L 12.730469 -5.167969 L 16.804688 -5.167969 L 20.976562 -11.015625 L 20.976562 0 L 27.199219 0 L 27.199219 -21.785156 L 22.097656 -21.785156 L 14.75 -11.421875 L 7.4375 -21.785156 L 2.304688 -21.785156 Z M 2.304688 0 "/></g></g></g><g fill="#000000" fill-opacity="1"><g transform="translate(283.057218, 197.771295)"><g><path d="M 2.304688 0 L 17.582031 0 L 17.582031 -5.136719 L 8.527344 -5.136719 L 8.527344 -8.496094 L 16.402344 -8.496094 L 16.402344 -13.539062 L 8.527344 -13.539062 L 8.527344 -16.710938 L 17.242188 -16.710938 L 17.242188 -21.785156 L 2.304688 -21.785156 Z M 2.304688 0 "/></g></g></g><g fill="#000000" fill-opacity="1"><g transform="translate(302.040568, 197.771295)"><g><path d="M 16.648438 -2.210938 L 16.648438 -8.339844 L 10.707031 -10.175781 L 13.289062 -10.953125 L 16.648438 -12.011719 L 16.648438 -18.113281 L 2.273438 -12.417969 L 2.273438 -7.9375 Z M 16.648438 -2.210938 "/></g></g></g></svg>